<?xml version="1.0" standalone="no"?>
<!DOCTYPE svg PUBLIC "-//W3C//DTD SVG 20010904//EN"
 "http://www.w3.org/TR/2001/REC-SVG-20010904/DTD/svg10.dtd">
<svg version="1.0" xmlns="http://www.w3.org/2000/svg"
 width="6016.000000pt" height="4016.000000pt" viewBox="0 0 6016.000000 4016.000000"
 preserveAspectRatio="xMidYMid meet">

<g transform="translate(0.000000,4016.000000) scale(0.100000,-0.100000)"
fill="#000000" stroke="none">
<path d="M19548 36561 c-146 -75 -274 -143 -285 -151 -19 -15 -19 -22 -10
-456 l10 -440 -28 -120 c-15 -65 -46 -200 -70 -299 -24 -99 -57 -241 -74 -315
-50 -212 -82 -349 -101 -428 -18 -71 -18 -78 0 -190 25 -157 38 -241 55 -337
15 -83 33 -197 60 -375 9 -58 22 -141 30 -185 7 -44 21 -120 29 -170 8 -49 23
-137 32 -195 8 -58 20 -125 25 -150 6 -25 12 -69 15 -99 3 -30 9 -62 14 -71 5
-10 12 -48 16 -86 3 -38 10 -86 16 -107 5 -21 13 -71 19 -110 14 -105 34 -233
63 -397 14 -80 30 -172 35 -205 6 -33 14 -85 17 -115 4 -30 10 -59 14 -65 3
-5 7 -30 9 -55 2 -43 31 -210 51 -298 6 -23 10 -59 10 -80 0 -20 7 -62 15 -92
8 -30 15 -71 15 -91 0 -20 7 -56 15 -79 8 -23 15 -64 15 -90 0 -26 7 -69 15
-96 8 -27 15 -79 15 -115 0 -36 4 -90 10 -120 5 -30 14 -117 19 -194 13 -194
38 -473 72 -797 6 -54 14 -153 19 -220 5 -68 14 -157 19 -198 5 -41 12 -120
16 -175 3 -55 7 -116 9 -135 3 -19 7 -84 11 -145 3 -60 10 -135 16 -165 5 -30
12 -98 15 -150 3 -52 8 -102 12 -110 3 -8 6 -35 7 -60 0 -25 5 -82 9 -127 l8
-82 -200 -213 c-1129 -1202 -2012 -2536 -2684 -4053 -44 -99 -92 -211 -108
-250 -15 -38 -60 -151 -100 -250 -68 -169 -89 -226 -205 -550 -297 -832 -539
-1852 -664 -2795 -92 -689 -124 -1186 -124 -1915 0 -841 55 -1534 184 -2325
32 -199 40 -241 94 -515 404 -2035 1262 -3964 2528 -5685 300 -407 673 -854
1052 -1260 1854 -1985 4254 -3415 6869 -4090 184 -48 453 -112 546 -130 25 -5
88 -18 140 -30 187 -40 647 -120 890 -154 714 -101 1269 -139 2030 -139 764 0
1309 37 2030 139 241 33 703 114 890 154 52 12 115 25 140 30 195 39 644 152
926 234 2841 825 5345 2496 7205 4811 283 352 679 897 679 934 0 6 4 11 8 11
5 0 19 22 32 50 13 27 27 47 32 44 4 -3 8 1 8 9 0 12 7 23 49 73 5 6 12 20 15
32 4 12 12 22 17 22 5 0 9 7 9 15 0 7 6 18 13 22 15 10 34 39 48 76 6 15 14
27 19 27 4 0 10 14 14 30 3 17 12 30 20 30 16 0 68 81 233 365 582 999 1034
2042 1357 3126 149 501 234 857 366 1534 38 196 106 667 140 973 61 552 83
966 83 1582 0 688 -28 1158 -109 1810 -141 1143 -458 2388 -872 3425 -119 298
-143 356 -221 532 -584 1316 -1324 2491 -2244 3563 -1275 1485 -2828 2688
-4585 3551 -122 60 -224 109 -226 109 -2 0 -46 20 -97 44 -607 285 -1373 567
-2084 766 -121 34 -247 70 -280 79 l-59 17 -22 59 c-12 33 -36 98 -52 145 -17
47 -51 141 -76 210 -25 69 -66 186 -92 260 -26 74 -55 153 -66 175 -23 49 -58
149 -58 168 0 8 -12 41 -26 73 -14 32 -36 90 -49 128 -13 39 -33 96 -45 126
-12 30 -24 64 -27 75 -3 11 -11 34 -19 52 -8 17 -14 40 -14 52 0 12 -4 21 -9
21 -5 0 -12 15 -16 33 -3 17 -10 41 -16 52 -14 31 -88 241 -116 330 -13 44
-28 89 -32 100 -21 53 -41 125 -41 143 0 11 -18 76 -39 144 -22 67 -49 157
-61 198 -12 41 -28 93 -35 115 -19 61 -41 134 -58 195 -57 202 -84 278 -123
339 -50 79 -283 454 -417 671 -195 316 -141 260 -459 479 l-282 195 -409 -17
-409 -17 -141 -66 c-78 -36 -245 -113 -372 -171 -126 -58 -246 -113 -265 -123
-22 -11 -71 -63 -127 -132 -50 -62 -172 -214 -272 -338 -100 -124 -270 -335
-379 -470 -108 -135 -199 -247 -202 -250 -3 -3 -28 -33 -55 -68 -28 -35 -66
-83 -85 -106 -19 -24 -78 -97 -131 -162 -53 -65 -158 -195 -234 -289 -76 -93
-190 -235 -254 -315 -63 -80 -118 -147 -121 -150 -9 -9 -120 -148 -173 -218
-28 -37 -53 -69 -56 -72 -12 -10 -66 -76 -86 -104 -11 -16 -25 -33 -30 -40 -6
-6 -28 -33 -50 -61 -53 -65 -76 -93 -100 -121 -11 -12 -27 -32 -35 -45 -8 -12
-24 -33 -36 -47 l-20 -25 -85 34 c-46 19 -90 40 -98 47 -7 7 -19 11 -27 8 -7
-3 -18 2 -24 10 -7 8 -17 14 -22 14 -9 0 -44 14 -113 45 -16 8 -40 16 -52 20
-13 3 -23 11 -23 16 0 5 -8 9 -17 10 -10 0 -38 11 -63 24 -86 45 -133 65 -150
65 -10 0 -20 7 -24 15 -3 8 -14 15 -24 15 -10 0 -40 11 -68 24 -41 21 -55 23
-89 16 -44 -10 -216 -27 -400 -40 -66 -5 -129 -11 -140 -14 -11 -2 -45 -7 -75
-11 -30 -4 -64 -14 -75 -21 -11 -8 -27 -14 -37 -14 -10 0 -18 -4 -18 -10 0 -5
-5 -10 -11 -10 -5 0 -31 -9 -57 -21 -26 -11 -63 -27 -82 -36 -19 -8 -57 -25
-85 -38 -107 -51 -187 -85 -211 -91 -13 -3 -27 -10 -30 -15 -15 -24 -61 -5
-155 66 -55 41 -104 75 -109 75 -4 0 -10 4 -12 8 -1 4 -45 37 -96 72 -51 36
-141 100 -200 143 -59 43 -138 99 -177 125 -38 26 -81 57 -95 70 -13 12 -29
22 -35 22 -5 0 -26 14 -45 31 -19 16 -71 55 -115 86 -44 31 -107 75 -140 98
-352 245 -414 292 -697 528 -150 126 -298 248 -328 273 -62 50 -143 120 -210
180 -25 23 -92 80 -150 128 -58 48 -125 104 -150 125 -182 155 -335 284 -521
442 -118 101 -296 252 -394 334 -98 83 -183 155 -189 160 -18 15 -108 91 -391
330 -573 484 -521 443 -578 450 -29 3 -77 10 -107 15 -30 6 -156 23 -280 40
-124 17 -232 32 -241 34 -9 2 -135 -58 -281 -133z m12192 -10425 c0 -3 -4 -8
-10 -11 -5 -3 -10 -1 -10 4 0 6 5 11 10 11 6 0 10 -2 10 -4z m-630 -726 c0 -5
-5 -10 -11 -10 -5 0 -7 5 -4 10 3 6 8 10 11 10 2 0 4 -4 4 -10z m-20 -24 c0
-2 -8 -10 -17 -17 -16 -13 -17 -12 -4 4 13 16 21 21 21 13z m-110 -145 c0 -5
-7 -12 -16 -15 -14 -5 -15 -4 -4 9 14 17 20 19 20 6z m-20 -160 c0 -4 114 -9
253 -10 228 -1 699 -10 1506 -27 l293 -6 17 -29 c20 -35 26 -36 186 -44 72 -3
245 -12 385 -20 140 -8 356 -19 480 -25 124 -6 299 -15 390 -21 91 -5 254 -14
363 -19 108 -5 201 -11 206 -14 5 -3 4 -25 -1 -48 -4 -24 -11 -68 -14 -98 -2
-30 -7 -64 -9 -75 -3 -11 -16 -108 -30 -215 -14 -107 -29 -222 -35 -255 -10
-65 -45 -319 -85 -620 -13 -104 -29 -219 -35 -255 -12 -74 -38 -261 -51 -365
-4 -38 -12 -99 -17 -135 -6 -36 -19 -137 -31 -225 -12 -88 -27 -196 -35 -240
l-13 -80 -23 53 c-12 28 -27 52 -31 52 -5 0 -9 -25 -9 -55 0 -29 -4 -76 -10
-102 -5 -26 -14 -124 -20 -218 -26 -420 -51 -796 -65 -985 -8 -113 -29 -385
-45 -605 -17 -220 -37 -488 -45 -595 -8 -107 -24 -321 -35 -475 -11 -154 -22
-307 -25 -340 -13 -157 -85 -1133 -91 -1235 -5 -87 -10 -118 -22 -127 -11 -10
-12 -13 -3 -13 10 0 12 -9 8 -30 -7 -33 11 -41 33 -15 7 8 19 15 27 15 12 0
14 -7 9 -30 -5 -26 -129 -349 -156 -405 -5 -11 -35 -85 -66 -164 -31 -80 -62
-159 -69 -175 -7 -17 -20 -47 -28 -66 -9 -19 -27 -61 -40 -92 -14 -31 -23 -59
-20 -62 3 -3 -4 -17 -14 -33 -19 -27 -35 -60 -37 -75 -1 -3 -4 -10 -8 -14 -5
-4 -8 -18 -8 -31 0 -12 -4 -23 -9 -23 -5 0 -13 -15 -17 -32 -3 -18 -13 -42
-20 -54 -8 -11 -11 -23 -8 -27 12 -12 -17 -75 -37 -80 -12 -3 -18 -10 -15 -16
4 -5 2 -12 -4 -16 -5 -3 -7 -17 -4 -31 4 -17 2 -24 -9 -24 -18 0 -29 -26 -22
-51 5 -14 1 -19 -11 -19 -13 0 -14 -3 -4 -15 9 -10 9 -15 1 -15 -6 0 -11 -8
-11 -18 0 -10 -9 -25 -21 -35 -13 -12 -18 -24 -14 -37 4 -12 2 -20 -5 -20 -6
0 -8 -4 -5 -10 3 -5 -1 -10 -9 -10 -9 0 -16 -7 -16 -15 0 -8 5 -15 10 -15 6 0
10 -5 10 -11 0 -6 -7 -8 -16 -5 -13 5 -14 1 -9 -24 6 -29 -8 -44 -18 -17 -2 6
-8 9 -12 5 -4 -4 -2 -14 4 -22 8 -9 9 -21 4 -28 -13 -22 -3 -256 18 -378 10
-63 19 -129 19 -146 0 -16 4 -34 9 -40 5 -5 14 -52 21 -104 7 -52 16 -117 21
-145 4 -27 13 -88 19 -135 6 -47 13 -98 15 -115 6 -40 32 -195 54 -320 15 -85
16 -102 5 -116 -8 -8 -14 -20 -14 -25 0 -5 7 0 15 10 14 18 15 17 15 -23 0
-25 4 -40 10 -36 6 4 10 -7 10 -24 0 -51 30 -235 40 -245 6 -6 32 -1 67 11 32
12 123 44 203 72 80 28 154 55 165 59 11 5 58 22 105 37 47 16 128 46 180 68
110 46 452 177 462 177 4 0 19 5 35 12 36 14 52 19 83 22 14 1 36 8 48 15 13
7 26 10 29 7 6 -5 -13 -99 -27 -131 -5 -11 -11 -31 -14 -45 -2 -14 -9 -41 -14
-60 -5 -19 -19 -71 -31 -115 -12 -44 -27 -96 -35 -115 -7 -19 -21 -69 -30
-110 -20 -87 -44 -176 -56 -205 -5 -11 -11 -31 -14 -45 -2 -14 -9 -41 -15 -60
-6 -19 -19 -69 -30 -110 -11 -41 -33 -122 -48 -180 -15 -58 -31 -106 -35 -108
-5 -2 -8 -18 -8 -36 0 -18 -3 -36 -7 -40 -8 -8 -43 -127 -50 -174 -3 -18 -9
-35 -14 -38 -5 -3 -9 -16 -9 -29 0 -13 -4 -34 -9 -47 -5 -13 -17 -52 -27 -88
-9 -36 -21 -69 -26 -74 -4 -6 -8 -18 -8 -27 0 -27 -9 -28 -85 -8 -126 34 -231
31 -196 -4 14 -14 14 -30 0 -21 -7 4 -10 1 -7 -7 3 -8 10 -13 16 -12 5 1 15
-11 22 -27 14 -33 5 -54 -54 -118 -17 -18 -34 -40 -39 -47 -4 -8 -15 -12 -25
-9 -14 5 -15 4 -2 -5 12 -8 9 -16 -19 -45 -19 -19 -39 -32 -44 -29 -6 4 -7 1
-2 -7 4 -7 3 -15 -1 -19 -5 -3 -25 -26 -44 -51 -19 -25 -40 -49 -46 -55 -6 -5
-21 -25 -33 -42 -20 -30 -52 -49 -35 -21 4 7 3 8 -4 4 -6 -4 -9 -12 -6 -20 4
-11 -117 -173 -150 -201 -6 -5 -25 -28 -41 -50 -16 -22 -34 -44 -39 -50 -6 -5
-23 -26 -37 -45 -15 -19 -37 -46 -49 -60 -12 -14 -34 -41 -49 -60 -14 -19 -39
-50 -56 -68 -16 -19 -33 -40 -38 -47 -4 -8 -15 -12 -25 -9 -14 5 -15 4 -2 -5
12 -8 10 -16 -19 -45 -21 -21 -40 -32 -50 -29 -13 4 -13 3 -2 -5 11 -8 7 -17
-20 -47 -19 -20 -38 -44 -43 -53 -9 -15 -50 -64 -88 -104 -10 -10 -18 -23 -18
-29 0 -6 -9 -8 -22 -4 -17 5 -19 4 -9 -4 13 -8 13 -12 1 -28 -17 -22 -72 -86
-110 -129 -15 -18 -34 -42 -43 -54 -8 -12 -20 -19 -26 -16 -7 5 -8 1 -5 -9 5
-11 -3 -26 -22 -43 -16 -15 -43 -45 -59 -67 -36 -50 -107 -125 -117 -125 -4 0
-8 7 -8 15 0 8 -4 15 -9 15 -13 0 -21 -39 -9 -47 7 -3 8 -1 4 5 -4 7 -3 12 3
12 15 0 21 -14 11 -30 -7 -12 -11 -12 -26 1 -16 13 -16 12 -6 -8 7 -12 8 -23
4 -25 -4 -2 -23 -23 -42 -48 -19 -25 -47 -58 -62 -74 l-27 -30 -9 25 c-5 13
-16 49 -25 79 -9 30 -28 94 -43 142 -14 48 -24 96 -21 108 3 13 1 20 -6 17 -7
-2 -20 31 -34 82 -12 47 -30 111 -39 141 -9 30 -26 91 -38 135 -11 44 -24 81
-28 83 -4 2 -10 20 -14 40 -8 45 -42 159 -56 189 -6 12 -8 29 -4 38 3 9 2 13
-4 10 -6 -3 -10 4 -10 15 0 12 -6 36 -14 53 -14 33 -45 141 -52 186 -3 14 -15
60 -29 101 -48 149 -75 244 -75 268 0 14 -3 22 -7 19 -5 -6 -43 119 -70 233
-3 14 -9 30 -13 35 -4 6 -13 36 -20 67 -6 32 -16 60 -21 64 -6 3 -8 17 -4 31
3 15 2 22 -4 19 -6 -4 -13 10 -16 31 -4 21 -10 47 -15 58 -4 11 -14 43 -21 70
-6 28 -16 56 -22 62 -5 7 -7 22 -4 33 3 11 2 18 -3 15 -7 -4 -18 33 -23 77 -1
9 -3 15 -6 12 -11 -11 -64 222 -54 239 3 5 1 7 -4 4 -13 -8 -47 96 -40 126 2
12 1 33 -4 47 -8 22 -8 21 -4 -7 2 -18 3 -33 0 -33 -7 0 -45 135 -45 159 0 12
-4 20 -8 17 -5 -3 -15 20 -22 52 -14 65 -49 188 -61 217 -21 51 -29 105 -19
124 6 13 7 27 0 43 l-10 23 1 -25 c2 -49 0 -57 -11 -40 -5 8 -7 23 -4 33 3 9
1 17 -5 17 -5 0 -13 17 -17 38 -3 20 -20 77 -36 125 -16 48 -27 94 -24 103 3
8 2 13 -3 10 -5 -3 -12 11 -16 32 -4 20 -12 43 -18 50 -5 7 -10 33 -10 58 0
25 -3 40 -7 34 -3 -5 -12 14 -19 42 -16 65 -31 117 -42 143 -5 11 -13 40 -18
64 -12 56 0 83 48 108 20 10 38 21 39 26 2 4 12 7 22 7 10 0 21 4 24 9 3 5 18
12 33 16 15 3 39 17 54 29 15 13 46 26 68 30 23 3 41 11 41 16 0 6 12 10 26
10 14 0 23 4 19 10 -3 6 3 10 14 10 11 0 23 5 26 10 4 6 10 8 14 6 4 -3 22 4
39 15 18 10 43 19 57 19 16 0 23 4 19 14 -4 9 9 17 40 25 24 6 51 18 60 26 8
8 19 15 23 15 18 0 93 41 93 50 0 6 8 10 18 10 11 0 34 8 53 17 43 22 73 27
63 11 -4 -7 -3 -8 5 -4 8 5 9 12 2 19 -6 9 -2 12 15 13 13 1 45 12 70 23 25
12 55 19 67 17 12 -3 16 -3 10 0 -28 12 -11 26 27 22 48 -4 53 6 8 17 -31 8
-31 8 -8 12 14 2 32 7 40 10 8 3 20 7 25 7 6 1 20 7 31 13 12 7 24 9 28 6 3
-3 6 -2 6 3 0 6 16 16 35 24 19 8 35 17 35 22 0 4 7 8 15 8 8 0 15 5 15 10 0
6 6 10 13 10 7 0 32 9 55 20 22 11 46 20 52 20 5 0 10 5 10 10 0 6 10 10 23
10 13 0 32 7 43 15 10 8 26 15 35 15 9 0 19 7 23 15 4 11 13 14 31 9 18 -4 37
2 72 25 25 17 52 31 59 31 8 0 39 14 70 31 32 17 65 28 76 26 23 -6 24 12 1
20 -10 3 -31 16 -48 27 -16 12 -37 26 -47 31 -9 6 -88 59 -175 118 -87 60
-194 133 -238 163 -44 30 -108 75 -142 99 -34 25 -64 45 -68 45 -4 0 -32 19
-63 43 -31 23 -69 48 -83 56 -15 7 -38 23 -52 36 -13 13 -40 32 -59 42 -19 11
-67 42 -105 71 -39 29 -74 52 -77 52 -4 0 -22 11 -40 25 -18 14 -38 25 -44 25
-7 0 -12 4 -12 8 0 5 -48 42 -107 82 -60 41 -110 77 -113 81 -3 3 -21 14 -40
24 -19 10 -37 21 -40 24 -6 7 -31 23 -74 47 -15 8 -68 41 -117 72 -48 31 -120
77 -158 101 -48 30 -73 53 -80 73 -5 15 -14 28 -20 28 -5 0 -24 12 -41 26
l-31 27 -25 -24 -24 -23 14 45 c8 24 24 68 37 97 l24 53 -125 492 c-141 561
-182 721 -345 1362 -251 988 -250 986 -238 993 8 5 2 43 -23 137 -20 72 -42
159 -49 195 -8 36 -26 108 -41 160 -14 52 -30 115 -35 140 -15 78 -40 174 -50
192 -5 10 -9 26 -9 35 0 10 -28 126 -61 258 -74 294 -82 328 -107 435 -11 47
-32 128 -46 180 -31 114 -32 141 -6 165 11 10 20 23 20 28 0 6 -11 0 -25 -13
-14 -13 -28 -21 -31 -18 -13 13 49 89 147 178 103 94 229 210 239 220 3 3 30
28 60 55 31 28 112 102 180 166 69 64 206 189 305 279 99 90 212 193 250 228
95 88 142 131 343 316 94 87 172 160 172 163 0 2 -17 3 -37 1 -27 -2 -37 1
-35 10 2 10 -109 186 -129 202 -11 9 -90 126 -285 420 -108 162 -204 306 -213
320 -10 14 -44 68 -76 120 -33 52 -64 100 -70 107 -5 6 -46 68 -90 137 -44 68
-91 132 -105 140 -14 9 -41 30 -60 47 l-35 31 57 -6 c32 -2 60 0 63 5 8 11 25
12 25 0z m4137 -213 c-3 -8 -6 -5 -6 6 -1 11 2 17 5 13 3 -3 4 -12 1 -19z
m-7977 -2450 c0 -5 19 -8 41 -8 38 0 113 -8 659 -75 113 -13 284 -34 380 -45
96 -11 209 -24 250 -30 63 -8 259 -30 500 -56 30 -3 69 -7 85 -9 17 -2 53 -7
80 -10 28 -3 64 -8 80 -10 17 -3 116 -14 220 -25 235 -25 350 -38 485 -55 58
-7 140 -17 183 -20 117 -11 105 -22 -48 -45 -38 -6 -113 -19 -165 -30 -52 -10
-135 -26 -185 -35 -49 -8 -110 -20 -135 -25 -56 -12 -403 -76 -490 -90 -36 -5
-76 -13 -90 -16 -14 -3 -57 -11 -97 -16 -52 -7 -77 -16 -91 -32 -18 -20 -34
-101 -62 -321 -15 -116 -150 -1048 -155 -1069 -3 -12 -10 -59 -15 -106 -9 -82
-44 -323 -55 -385 -3 -16 -12 -35 -20 -40 -11 -9 -8 -15 16 -30 28 -19 39 -45
20 -45 -5 0 -16 -6 -23 -13 -7 -7 -47 -35 -88 -62 -41 -27 -88 -59 -105 -72
-34 -27 -45 -34 -67 -48 -36 -22 -215 -146 -238 -164 -14 -12 -29 -21 -33 -21
-5 0 -34 -19 -65 -43 -69 -53 -212 -147 -223 -147 -4 0 -9 -3 -11 -8 -4 -10
-129 -103 -148 -110 -16 -6 -30 -16 -60 -44 -10 -9 -27 -19 -37 -22 -11 -3
-28 -14 -39 -24 -10 -9 -53 -40 -94 -67 -41 -28 -76 -53 -78 -57 -2 -5 -10 -8
-18 -8 -8 0 -14 -4 -14 -8 0 -5 -19 -19 -42 -32 -24 -13 -47 -28 -53 -33 -5
-4 -71 -50 -145 -102 -74 -51 -160 -112 -191 -134 -32 -23 -61 -41 -67 -41 -5
0 -20 -10 -34 -22 -35 -32 -86 -68 -96 -68 -4 0 -17 -8 -28 -18 -34 -31 -185
-127 -196 -124 -5 1 -7 -2 -4 -6 3 -5 -25 -29 -62 -52 -37 -24 -113 -77 -170
-118 -57 -41 -105 -72 -108 -70 -2 3 18 36 44 74 27 38 47 74 45 80 -2 6 6 14
17 17 12 3 20 11 19 19 -4 18 28 78 58 107 13 14 21 31 19 38 -3 8 4 17 18 23
23 8 37 30 41 61 1 9 11 27 23 39 12 13 22 27 22 31 0 4 20 37 44 73 25 37 47
72 49 79 4 9 8 8 17 -3 9 -12 10 -11 5 7 -4 16 0 25 15 33 11 6 20 19 20 30 0
10 7 25 15 34 8 8 15 17 15 21 0 11 63 100 77 108 7 4 13 13 13 20 0 7 20 41
45 77 25 36 51 74 58 84 6 10 27 39 45 63 18 24 40 58 50 76 20 36 51 85 69
107 7 8 42 60 77 115 36 55 69 105 74 110 17 21 112 166 112 171 0 5 41 65 50
74 3 3 30 43 59 90 30 47 66 101 81 120 15 19 35 51 46 70 10 19 25 41 32 48
6 7 12 17 12 20 0 4 12 20 26 35 42 46 19 43 -42 -4 -32 -24 -112 -86 -178
-137 -67 -51 -184 -141 -261 -200 -77 -58 -163 -124 -190 -147 -60 -48 -103
-81 -170 -131 -27 -20 -57 -43 -65 -51 -8 -7 -33 -27 -55 -43 -22 -17 -53 -40
-69 -53 -16 -12 -100 -76 -186 -142 -86 -66 -230 -176 -320 -245 -89 -69 -217
-167 -284 -218 -66 -51 -122 -97 -124 -102 -2 -6 -8 -10 -13 -10 -9 0 -86 -55
-99 -71 -3 -3 -26 -21 -51 -40 -101 -75 -295 -224 -307 -236 -7 -7 -17 -13
-22 -13 -9 0 -7 8 41 170 17 58 41 143 53 190 13 47 28 101 34 120 7 19 23 76
37 125 14 50 33 115 41 145 9 30 19 66 24 80 4 14 15 52 24 85 9 33 32 116 52
185 20 69 40 139 45 155 4 17 16 55 24 85 9 30 21 73 27 95 5 22 14 48 19 59
6 10 12 54 14 98 3 54 9 86 19 97 9 10 13 21 10 24 -4 4 -1 14 7 23 8 9 12 27
11 40 -2 13 2 24 8 24 6 0 9 4 6 9 -3 5 1 12 10 15 11 4 14 13 10 30 -3 14 -1
26 5 28 6 2 13 17 15 33 2 17 13 57 24 90 11 33 21 61 21 62 0 2 1 8 3 15 5
17 15 61 16 70 0 5 9 32 20 60 11 29 27 82 36 118 9 36 25 96 36 134 12 38 22
78 23 90 1 12 3 25 4 29 0 5 10 5 21 2 11 -3 20 -3 20 2 0 4 15 24 33 43 17
19 66 76 107 125 41 50 103 124 139 165 35 41 73 86 85 100 12 14 65 77 117
140 96 115 115 135 149 155 16 9 268 286 400 440 25 29 77 87 115 129 39 42
78 91 87 108 27 49 77 73 156 73 12 0 22 -3 22 -7z m3122 -383 c0 -5 -5 -11
-11 -13 -6 -2 -11 4 -11 13 0 9 5 15 11 13 6 -2 11 -8 11 -13z m-3972 -296 c0
-5 -4 -9 -10 -9 -5 0 -10 7 -10 16 0 8 5 12 10 9 6 -3 10 -10 10 -16z m-6975
-1149 c3 -5 1 -10 -4 -10 -6 0 -11 5 -11 10 0 6 2 10 4 10 3 0 8 -4 11 -10z
m9302 -182 c-3 -8 -6 -5 -6 6 -1 11 2 17 5 13 3 -3 4 -12 1 -19z m-7263 -19
c-3 -5 -10 -7 -15 -3 -5 3 -7 10 -3 15 3 5 10 7 15 3 5 -3 7 -10 3 -15z m-24
-38 c0 -18 -21 -64 -26 -58 -9 8 6 67 17 67 5 0 9 -4 9 -9z m-1914 -10 c-4 -5
0 -12 6 -14 8 -3 6 -6 -4 -6 -10 -1 -18 6 -18 14 0 8 5 15 11 15 5 0 8 -4 5
-9z m18 -52 c-6 -11 -24 -2 -24 11 0 5 7 7 15 4 8 -4 12 -10 9 -15z m9107
-376 c-12 -20 -14 -14 -5 12 4 9 9 14 11 11 3 -2 0 -13 -6 -23z m-3198 -60
c-20 -38 -50 -93 -67 -123 -18 -30 -38 -67 -46 -82 -7 -16 -17 -28 -22 -28 -4
0 -8 -7 -8 -16 0 -15 -28 -73 -41 -84 -3 -3 -17 -27 -31 -55 -65 -125 -73
-140 -80 -143 -5 -2 -8 -8 -8 -13 0 -5 -21 -47 -47 -92 -25 -45 -68 -122 -94
-172 -50 -94 -71 -133 -127 -231 -19 -33 -53 -95 -75 -139 -23 -44 -44 -82
-47 -85 -3 -3 -16 -27 -30 -55 -14 -27 -32 -61 -41 -75 -9 -14 -34 -59 -56
-100 -91 -171 -165 -306 -174 -314 -5 -6 -9 -18 -9 -28 0 -10 -4 -18 -8 -18
-5 0 -17 -18 -27 -40 -10 -23 -23 -39 -29 -37 -6 3 -12 -5 -12 -17 -1 -11 -15
-43 -32 -71 -60 -101 -87 -150 -92 -169 -3 -11 -10 -21 -16 -23 -12 -4 -21 41
-30 141 -3 33 -9 79 -14 101 -29 139 -43 224 -71 415 -41 287 -57 410 -65 500
-3 41 -10 80 -16 87 -5 7 -10 38 -10 69 -1 51 -2 55 -14 39 -8 -10 -14 -22
-14 -27 0 -4 -4 -8 -10 -8 -5 0 -10 8 -10 18 0 12 -4 10 -13 -8 -23 -42 -186
-314 -197 -327 -5 -7 -10 -15 -10 -19 0 -3 -49 -87 -110 -185 -60 -98 -110
-183 -110 -189 0 -5 -4 -10 -8 -10 -5 0 -14 -12 -21 -27 -7 -16 -33 -58 -57
-95 -24 -37 -44 -72 -44 -78 0 -5 -4 -10 -10 -10 -5 0 -10 -7 -10 -15 0 -8 -4
-15 -10 -15 -5 0 -10 -5 -10 -11 0 -5 -19 -40 -43 -77 -24 -37 -54 -85 -67
-107 -13 -22 -30 -46 -37 -53 -7 -7 -13 -17 -13 -22 0 -5 -13 -23 -28 -40 -23
-24 -31 -28 -39 -18 -6 7 -45 76 -88 153 -43 77 -81 145 -85 150 -4 6 -41 71
-83 145 -41 74 -130 231 -196 349 -67 118 -121 222 -121 232 0 13 7 19 24 19
12 0 36 4 52 9 16 5 56 14 89 21 33 7 94 21 135 30 41 10 109 25 150 34 41 9
127 28 190 42 63 15 142 32 175 39 33 7 123 27 200 45 77 17 181 40 230 51 50
10 106 23 125 27 33 9 34 9 10 15 -14 3 -140 13 -280 22 -140 8 -316 20 -390
25 -334 24 -890 60 -919 60 -12 0 -21 5 -21 11 0 6 65 76 143 157 207 212 381
393 408 425 21 25 28 27 49 19 14 -6 216 -18 450 -27 234 -9 430 -18 436 -20
13 -4 37 -80 83 -255 17 -63 44 -158 60 -210 17 -52 34 -116 37 -142 4 -32 11
-48 21 -48 15 0 111 50 158 84 16 12 39 26 50 32 55 30 290 177 295 183 3 4
12 10 21 14 9 3 65 35 123 71 59 36 109 66 112 66 3 0 20 11 37 24 18 13 70
45 117 71 84 46 98 55 213 129 32 20 63 34 70 30 7 -4 9 -4 5 1 -8 9 60 66
107 90 17 9 53 29 80 45 28 16 55 29 62 30 7 0 -3 -29 -24 -67z m-5016 -325
c-3 -8 -6 -5 -6 6 -1 11 2 17 5 13 3 -3 4 -12 1 -19z m10138 -1526 c-7 -7 -45
29 -45 41 0 6 11 0 25 -13 14 -13 23 -26 20 -28z m125 -113 c0 -6 -4 -7 -10
-4 -5 3 -10 11 -10 16 0 6 5 7 10 4 6 -3 10 -11 10 -16z m30 -30 c0 -6 -4 -7
-10 -4 -5 3 -10 11 -10 16 0 6 5 7 10 4 6 -3 10 -11 10 -16z m81 -69 c35 -33
60 -60 54 -60 -11 0 -125 104 -125 114 0 11 7 6 71 -54z m114 -110 c3 -5 2
-10 -4 -10 -5 0 -13 5 -16 10 -3 6 -2 10 4 10 5 0 13 -4 16 -10z m143 -126
c45 -36 32 -44 -15 -8 -66 50 -93 77 -87 86 4 5 20 -4 38 -21 17 -17 46 -42
64 -57z m57 -94 c3 -5 1 -10 -4 -10 -6 0 -11 5 -11 10 0 6 2 10 4 10 3 0 8 -4
11 -10z m39 -5 c3 -8 1 -15 -4 -15 -6 0 -10 7 -10 15 0 8 2 15 4 15 2 0 6 -7
10 -15z m136 -122 c38 -38 84 -83 104 -101 50 -47 35 -59 -16 -14 -122 107
-189 182 -162 182 4 0 37 -30 74 -67z m165 -239 c32 -21 23 -34 -21 -34 -35 0
-44 16 -22 38 15 15 14 15 43 -4z m222 -1366 c-3 -7 -5 -2 -5 12 0 14 2 19 5
13 2 -7 2 -19 0 -25z m30 -805 c-3 -10 -5 -4 -5 12 0 17 2 24 5 18 2 -7 2 -21
0 -30z m3718 -603 c3 -5 1 -10 -4 -10 -6 0 -11 5 -11 10 0 6 2 10 4 10 3 0 8
-4 11 -10z m20 -40 c3 -5 1 -10 -4 -10 -6 0 -11 5 -11 10 0 6 2 10 4 10 3 0 8
-4 11 -10z m435 -890 c0 -5 -2 -10 -4 -10 -3 0 -8 5 -11 10 -3 6 -1 10 4 10 6
0 11 -4 11 -10z m50 -81 c0 -5 -4 -9 -10 -9 -5 0 -10 7 -10 16 0 8 5 12 10 9
6 -3 10 -10 10 -16z m55 -108 c3 -5 1 -12 -5 -16 -5 -3 -10 1 -10 9 0 18 6 21
15 7z m178 -381 c3 -11 1 -20 -4 -20 -5 0 -9 9 -9 20 0 11 2 20 4 20 2 0 6 -9
9 -20z m27 -95 c11 -13 10 -14 -4 -9 -9 3 -16 10 -16 15 0 13 6 11 20 -6z"/>
<path d="M31457 17122 c-10 -10 -17 -21 -17 -25 0 -9 34 5 42 17 20 29 -1 35
-25 8z"/>
<path d="M33520 15570 c0 -5 6 -10 13 -10 8 0 22 -9 32 -20 10 -11 25 -20 34
-20 13 1 12 4 -4 16 -34 27 -75 45 -75 34z"/>
<path d="M33360 15550 c0 -6 11 -8 28 -4 39 10 40 14 4 14 -18 0 -32 -5 -32
-10z"/>
<path d="M33318 15523 c7 -3 16 -2 19 1 4 3 -2 6 -13 5 -11 0 -14 -3 -6 -6z"/>
<path d="M33250 15470 c-12 -8 -11 -10 8 -10 12 0 22 5 22 10 0 13 -11 13 -30
0z"/>
<path d="M33602 15450 c0 -19 2 -27 5 -17 2 9 2 25 0 35 -3 9 -5 1 -5 -18z"/>
<path d="M33611 15364 c0 -11 3 -14 6 -6 3 7 2 16 -1 19 -3 4 -6 -2 -5 -13z"/>
<path d="M32850 15310 c0 -5 5 -10 11 -10 5 0 7 5 4 10 -3 6 -8 10 -11 10 -2
0 -4 -4 -4 -10z"/>
<path d="M33603 15255 c0 -27 2 -38 4 -22 2 15 2 37 0 50 -2 12 -4 0 -4 -28z"/>
<path d="M33632 15220 c0 -14 2 -19 5 -12 2 6 2 18 0 25 -3 6 -5 1 -5 -13z"/>
<path d="M32348 15043 c7 -3 16 -2 19 1 4 3 -2 6 -13 5 -11 0 -14 -3 -6 -6z"/>
<path d="M33682 14965 c0 -16 2 -22 5 -12 2 9 2 23 0 30 -3 6 -5 -1 -5 -18z"/>
<path d="M33682 14750 c0 -14 2 -19 5 -12 2 6 2 18 0 25 -3 6 -5 1 -5 -13z"/>
<path d="M33700 14746 c0 -8 5 -18 10 -21 6 -3 10 3 10 14 0 12 -4 21 -10 21
-5 0 -10 -6 -10 -14z"/>
<path d="M31620 14726 c0 -2 7 -7 16 -10 8 -3 12 -2 9 4 -6 10 -25 14 -25 6z"/>
<path d="M31596 14687 c3 -10 9 -15 12 -12 3 3 0 11 -7 18 -10 9 -11 8 -5 -6z"/>
<path d="M31688 14683 c7 -3 16 -2 19 1 4 3 -2 6 -13 5 -11 0 -14 -3 -6 -6z"/>
<path d="M31658 14614 c2 -14 -1 -36 -8 -50 -8 -13 -10 -27 -7 -31 4 -3 7 2 8
13 0 16 2 15 10 -5 5 -13 11 -22 12 -20 6 9 -5 119 -13 119 -4 0 -5 -12 -2
-26z"/>
<path d="M31798 14633 c6 -2 18 -2 25 0 6 3 1 5 -13 5 -14 0 -19 -2 -12 -5z"/>
<path d="M31840 14620 c0 -5 7 -7 15 -4 8 4 15 8 15 10 0 2 -7 4 -15 4 -8 0
-15 -4 -15 -10z"/>
<path d="M31625 14611 c-3 -5 -1 -12 5 -16 5 -3 10 1 10 9 0 18 -6 21 -15 7z"/>
<path d="M31651 14500 c0 -8 4 -24 8 -35 7 -17 9 -16 15 9 4 16 5 31 1 34 -3
3 -5 -3 -6 -14 0 -18 -1 -18 -9 1 -5 13 -9 14 -9 5z"/>
<path d="M32248 14473 c6 -2 18 -2 25 0 6 3 1 5 -13 5 -14 0 -19 -2 -12 -5z"/>
<path d="M32313 14460 c2 -8 12 -16 23 -17 13 -2 15 -1 4 4 -8 3 -19 11 -23
17 -6 7 -7 6 -4 -4z"/>
<path d="M32378 14463 c7 -3 16 -2 19 1 4 3 -2 6 -13 5 -11 0 -14 -3 -6 -6z"/>
<path d="M31745 14390 c3 -5 8 -10 11 -10 2 0 4 5 4 10 0 6 -5 10 -11 10 -5 0
-7 -4 -4 -10z"/>
<path d="M32015 14360 c3 -5 11 -10 16 -10 6 0 7 5 4 10 -3 6 -11 10 -16 10
-6 0 -7 -4 -4 -10z"/>
<path d="M33777 14339 c4 -13 8 -18 11 -10 2 7 -1 18 -6 23 -8 8 -9 4 -5 -13z"/>
<path d="M31741 14313 c-1 -6 -4 -20 -7 -30 -5 -17 -5 -17 6 0 6 10 9 23 6 30
-3 9 -5 9 -5 0z"/>
<path d="M32698 14313 c7 -3 16 -2 19 1 4 3 -2 6 -13 5 -11 0 -14 -3 -6 -6z"/>
<path d="M32848 14313 c6 -2 18 -2 25 0 6 3 1 5 -13 5 -14 0 -19 -2 -12 -5z"/>
<path d="M32794 14285 c8 -8 20 -15 27 -15 7 0 4 6 -7 15 -25 19 -40 19 -20 0z"/>
<path d="M32130 14270 c15 -14 26 -18 28 -10 5 14 3 16 -28 24 l-25 7 25 -21z"/>
<path d="M31752 14240 c0 -14 2 -19 5 -12 2 6 2 18 0 25 -3 6 -5 1 -5 -13z"/>
<path d="M32938 14233 c7 -3 16 -2 19 1 4 3 -2 6 -13 5 -11 0 -14 -3 -6 -6z"/>
<path d="M33088 14233 c6 -2 18 -2 25 0 6 3 1 5 -13 5 -14 0 -19 -2 -12 -5z"/>
<path d="M33024 14205 c11 -8 27 -15 35 -15 11 0 10 4 -5 15 -10 8 -26 14 -34
14 -11 0 -10 -3 4 -14z"/>
<path d="M32260 14180 c0 -5 5 -10 10 -10 6 0 10 5 10 10 0 6 -4 10 -10 10 -5
0 -10 -4 -10 -10z"/>
<path d="M33288 14113 c6 -2 18 -2 25 0 6 3 1 5 -13 5 -14 0 -19 -2 -12 -5z"/>
<path d="M32398 14083 c7 -3 16 -2 19 1 4 3 -2 6 -13 5 -11 0 -14 -3 -6 -6z"/>
<path d="M31780 14068 c0 -7 5 -20 10 -28 8 -12 10 -9 10 13 0 15 -4 27 -10
27 -5 0 -10 -6 -10 -12z"/>
<path d="M31819 14038 c-2 -25 -1 -44 4 -41 4 2 7 -1 7 -8 0 -7 2 -10 4 -8 2
2 0 27 -4 54 l-6 50 -5 -47z"/>
<path d="M32432 14049 c2 -7 17 -16 33 -21 32 -8 49 -2 19 7 -10 4 -27 11 -38
16 -13 8 -17 7 -14 -2z"/>
<path d="M33608 13993 c6 -2 18 -2 25 0 6 3 1 5 -13 5 -14 0 -19 -2 -12 -5z"/>
<path d="M33670 13980 c0 -6 7 -10 15 -10 8 0 15 2 15 4 0 2 -7 6 -15 10 -8 3
-15 1 -15 -4z"/>
<path d="M32580 13946 c0 -9 5 -16 10 -16 6 0 10 4 10 9 0 6 -4 13 -10 16 -5
3 -10 -1 -10 -9z"/>
<path d="M31895 13830 c3 -5 8 -10 11 -10 2 0 4 5 4 10 0 6 -5 10 -11 10 -5 0
-7 -4 -4 -10z"/>
<path d="M31850 13821 c0 -5 5 -13 10 -16 6 -3 10 -2 10 4 0 5 -4 13 -10 16
-5 3 -10 2 -10 -4z"/>
<path d="M31880 13764 c0 -8 5 -12 10 -9 6 4 8 11 5 16 -9 14 -15 11 -15 -7z"/>
<path d="M31891 13718 c0 -7 4 -22 9 -33 8 -18 9 -17 9 7 1 15 -3 30 -9 33 -5
3 -10 0 -9 -7z"/>
<path d="M31912 13640 c0 -14 2 -19 5 -12 2 6 2 18 0 25 -3 6 -5 1 -5 -13z"/>
<path d="M32990 13649 c0 -8 32 -29 44 -29 15 0 3 16 -19 27 -14 6 -25 7 -25
2z"/>
<path d="M33140 13540 c0 -5 5 -10 10 -10 6 0 10 5 10 10 0 6 -4 10 -10 10 -5
0 -10 -4 -10 -10z"/>
<path d="M31976 13473 c-3 -10 -9 -24 -12 -30 -3 -7 -1 -13 5 -13 6 0 11 7 11
16 0 8 5 12 10 9 12 -8 13 5 1 23 -6 11 -10 10 -15 -5z"/>
<path d="M33220 13476 c0 -9 7 -16 16 -16 17 0 14 22 -4 28 -7 2 -12 -3 -12
-12z"/>
<path d="M33316 13404 c-6 -16 2 -18 22 -5 11 7 11 9 -1 14 -9 3 -18 -1 -21
-9z"/>
<path d="M33440 13332 c0 -13 27 -35 39 -30 5 1 -2 11 -15 21 -13 10 -24 14
-24 9z"/>
<path d="M32021 13273 c0 -5 4 -17 9 -28 8 -18 9 -17 9 8 1 15 -3 27 -9 27 -5
0 -10 -3 -9 -7z"/>
<path d="M32060 13238 c-3 -26 -1 -43 3 -39 5 5 7 26 5 47 l-3 39 -5 -47z"/>
<path d="M33580 13240 c0 -5 5 -10 10 -10 6 0 10 5 10 10 0 6 -4 10 -10 10 -5
0 -10 -4 -10 -10z"/>
<path d="M32061 13154 c0 -11 3 -14 6 -6 3 7 2 16 -1 19 -3 4 -6 -2 -5 -13z"/>
<path d="M33715 13140 c3 -5 8 -10 11 -10 2 0 4 5 4 10 0 6 -5 10 -11 10 -5 0
-7 -4 -4 -10z"/>
<path d="M33781 13083 c32 -24 69 -44 69 -38 0 7 -73 55 -84 55 -5 0 2 -8 15
-17z"/>
<path d="M32145 13030 c3 -5 8 -10 11 -10 2 0 4 5 4 10 0 6 -5 10 -11 10 -5 0
-7 -4 -4 -10z"/>
<path d="M33905 12980 c4 -6 10 -8 15 -5 5 3 11 1 15 -5 3 -5 16 -10 28 -10
22 1 22 1 3 15 -22 17 -71 21 -61 5z"/>
<path d="M32135 12930 c-4 -17 -5 -34 -2 -36 3 -3 8 9 12 26 4 17 5 34 2 36
-3 3 -8 -9 -12 -26z"/>
<path d="M32152 12890 c0 -14 2 -19 5 -12 2 6 2 18 0 25 -3 6 -5 1 -5 -13z"/>
<path d="M34034 12895 c11 -8 27 -15 35 -15 9 0 3 7 -13 15 -36 19 -47 19 -22
0z"/>
<path d="M34091 12854 c13 -16 29 -19 29 -5 0 5 -9 11 -21 14 -16 4 -18 3 -8
-9z"/>
<path d="M32152 12810 c0 -14 2 -19 5 -12 2 6 2 18 0 25 -3 6 -5 1 -5 -13z"/>
<path d="M34080 12820 c0 -5 5 -10 11 -10 5 0 7 5 4 10 -3 6 -8 10 -11 10 -2
0 -4 -4 -4 -10z"/>
<path d="M34118 12803 c7 -3 16 -2 19 1 4 3 -2 6 -13 5 -11 0 -14 -3 -6 -6z"/>
<path d="M34160 12795 c0 -2 9 -9 20 -15 16 -9 20 -8 20 5 0 8 -9 15 -20 15
-11 0 -20 -2 -20 -5z"/>
<path d="M34215 12760 c3 -5 13 -10 21 -10 8 0 14 5 14 10 0 6 -9 10 -21 10
-11 0 -17 -4 -14 -10z"/>
<path d="M34188 12723 c6 -2 18 -2 25 0 6 3 1 5 -13 5 -14 0 -19 -2 -12 -5z"/>
<path d="M32215 12676 c0 -24 3 -42 7 -40 3 2 8 1 11 -3 2 -5 2 -2 0 5 -1 8
-3 29 -3 48 0 19 -3 34 -7 34 -5 0 -8 -20 -8 -44z"/>
<path d="M34360 12661 c0 -5 9 -11 21 -14 16 -4 18 -3 8 9 -13 16 -29 19 -29
5z"/>
<path d="M34435 12610 c3 -5 14 -10 23 -10 15 0 15 2 2 10 -20 13 -33 13 -25
0z"/>
<path d="M32220 12591 c0 -11 4 -22 9 -25 4 -3 6 6 3 19 -5 30 -12 33 -12 6z"/>
<path d="M34413 12583 c9 -9 19 -14 23 -11 10 10 -6 28 -24 28 -15 0 -15 -1 1
-17z"/>
<path d="M32288 12473 c7 -3 16 -2 19 1 4 3 -2 6 -13 5 -11 0 -14 -3 -6 -6z"/>
<path d="M34481 12454 c0 -11 3 -14 6 -6 3 7 2 16 -1 19 -3 4 -6 -2 -5 -13z"/>
<path d="M32268 12443 c5 -10 15 -44 22 -75 7 -32 17 -55 21 -52 5 3 3 19 -5
37 -7 18 -16 49 -20 70 -4 20 -11 37 -17 37 -6 0 -6 -7 -1 -17z"/>
<path d="M32312 12425 c0 -16 2 -22 5 -12 2 9 2 23 0 30 -3 6 -5 -1 -5 -18z"/>
<path d="M34412 12380 c-18 -29 -15 -38 4 -12 9 13 14 25 12 27 -2 2 -9 -5
-16 -15z"/>
<path d="M34340 12305 c7 -9 15 -13 17 -11 7 7 -7 26 -19 26 -6 0 -6 -6 2 -15z"/>
<path d="M32311 12274 c0 -11 3 -14 6 -6 3 7 2 16 -1 19 -3 4 -6 -2 -5 -13z"/>
<path d="M34251 12203 c7 -12 15 -20 18 -17 3 2 -3 12 -13 22 -17 16 -18 16
-5 -5z"/>
<path d="M32364 12103 c0 -24 3 -43 7 -43 11 0 31 58 26 72 -3 7 -6 3 -6 -9
-1 -13 -5 -23 -10 -23 -5 0 -11 10 -14 23 -2 12 -4 3 -3 -20z"/>
<path d="M34200 12129 c0 -5 5 -7 10 -4 6 3 10 8 10 11 0 2 -4 4 -10 4 -5 0
-10 -5 -10 -11z"/>
<path d="M34167 12086 c-4 -10 -1 -13 9 -9 7 3 14 9 14 14 0 14 -17 10 -23 -5z"/>
<path d="M32391 12044 c0 -11 3 -14 6 -6 3 7 2 16 -1 19 -3 4 -6 -2 -5 -13z"/>
<path d="M32380 12011 c0 -6 4 -13 10 -16 6 -3 7 1 4 9 -7 18 -14 21 -14 7z"/>
<path d="M34081 12004 c0 -11 3 -14 6 -6 3 7 2 16 -1 19 -3 4 -6 -2 -5 -13z"/>
<path d="M32427 11883 c8 -52 13 -54 13 -5 0 23 -4 42 -9 42 -6 0 -7 -17 -4
-37z"/>
<path d="M34021 11904 c-7 -8 -11 -17 -9 -20 3 -2 13 5 23 16 10 11 14 20 9
20 -5 -1 -15 -8 -23 -16z"/>
<path d="M32450 11821 c0 -5 5 -13 10 -16 6 -3 10 -2 10 4 0 5 -4 13 -10 16
-5 3 -10 2 -10 -4z"/>
<path d="M33930 11811 c0 -17 18 -21 24 -6 3 9 0 15 -9 15 -8 0 -15 -4 -15 -9z"/>
<path d="M33880 11739 c0 -5 5 -7 10 -4 6 3 10 8 10 11 0 2 -4 4 -10 4 -5 0
-10 -5 -10 -11z"/>
<path d="M32545 11670 c3 -5 8 -10 11 -10 2 0 4 5 4 10 0 6 -5 10 -11 10 -5 0
-7 -4 -4 -10z"/>
<path d="M33810 11650 c0 -5 7 -7 15 -4 8 4 15 8 15 10 0 2 -7 4 -15 4 -8 0
-15 -4 -15 -10z"/>
<path d="M33775 11610 c-3 -5 -1 -10 4 -10 6 0 11 5 11 10 0 6 -2 10 -4 10 -3
0 -8 -4 -11 -10z"/>
<path d="M32541 11593 c0 -6 -4 -20 -7 -30 -5 -14 -4 -15 5 -7 7 7 11 20 8 30
-3 11 -5 14 -6 7z"/>
<path d="M32551 11534 c0 -11 3 -14 6 -6 3 7 2 16 -1 19 -3 4 -6 -2 -5 -13z"/>
<path d="M32552 11450 c0 -14 2 -19 5 -12 2 6 2 18 0 25 -3 6 -5 1 -5 -13z"/>
<path d="M32592 11340 c0 -14 2 -19 5 -12 2 6 2 18 0 25 -3 6 -5 1 -5 -13z"/>
<path d="M32615 11316 c0 -24 3 -42 7 -40 3 2 8 1 11 -3 2 -5 2 -2 0 5 -1 8
-3 29 -3 48 0 19 -3 34 -7 34 -5 0 -8 -20 -8 -44z"/>
<path d="M33535 11310 c3 -5 8 -10 11 -10 2 0 4 5 4 10 0 6 -5 10 -11 10 -5 0
-7 -4 -4 -10z"/>
<path d="M33450 11270 c0 -5 5 -10 10 -10 6 0 10 5 10 10 0 6 -4 10 -10 10 -5
0 -10 -4 -10 -10z"/>
<path d="M33490 11254 c0 -8 5 -12 10 -9 6 4 8 11 5 16 -9 14 -15 11 -15 -7z"/>
<path d="M32620 11231 c0 -11 4 -22 9 -25 4 -3 6 6 3 19 -5 30 -12 33 -12 6z"/>
<path d="M33378 11163 c-10 -2 -18 -12 -18 -20 0 -14 3 -13 23 3 12 10 24 20
26 21 6 4 -10 2 -31 -4z"/>
<path d="M32688 11113 c7 -3 16 -2 19 1 4 3 -2 6 -13 5 -11 0 -14 -3 -6 -6z"/>
<path d="M32668 11083 c5 -10 15 -44 22 -75 7 -32 17 -55 21 -52 5 3 3 19 -5
37 -7 18 -16 49 -20 70 -4 20 -11 37 -17 37 -6 0 -6 -7 -1 -17z"/>
<path d="M32712 11065 c0 -16 2 -22 5 -12 2 9 2 23 0 30 -3 6 -5 -1 -5 -18z"/>
<path d="M33310 11029 c0 -5 5 -7 10 -4 6 3 10 8 10 11 0 2 -4 4 -10 4 -5 0
-10 -5 -10 -11z"/>
<path d="M33235 10949 c-12 -18 3 -22 20 -5 14 14 14 16 1 16 -8 0 -18 -5 -21
-11z"/>
<path d="M32712 10920 c0 -14 2 -19 5 -12 2 6 2 18 0 25 -3 6 -5 1 -5 -13z"/>
<path d="M33200 10933 c0 -15 19 -37 26 -31 3 4 -1 14 -10 23 -9 9 -16 13 -16
8z"/>
<path d="M33160 10860 c0 -5 5 -10 11 -10 5 0 7 5 4 10 -3 6 -8 10 -11 10 -2
0 -4 -4 -4 -10z"/>
<path d="M33050 10790 c-8 -5 -12 -11 -9 -14 2 -3 11 -1 19 4 8 5 12 11 9 14
-2 3 -11 1 -19 -4z"/>
<path d="M32764 10743 c0 -24 4 -43 7 -43 11 0 31 58 26 72 -3 7 -6 3 -6 -9
-1 -13 -5 -23 -10 -23 -5 0 -12 10 -14 23 -2 12 -4 3 -3 -20z"/>
<path d="M33077 10763 c-4 -3 -7 -13 -7 -22 1 -13 3 -13 11 2 11 19 8 33 -4
20z"/>
<path d="M32972 10704 c-7 -8 -8 -14 -3 -14 10 0 25 19 20 25 -2 1 -10 -3 -17
-11z"/>
<path d="M33013 10700 c-1 -11 2 -20 8 -20 5 0 9 9 9 20 0 11 -4 20 -8 20 -4
0 -8 -9 -9 -20z"/>
<path d="M33046 10693 c-6 -14 -5 -15 5 -6 7 7 10 15 7 18 -3 3 -9 -2 -12 -12z"/>
<path d="M32791 10684 c0 -11 3 -14 6 -6 3 7 2 16 -1 19 -3 4 -6 -2 -5 -13z"/>
<path d="M32780 10651 c0 -6 4 -13 10 -16 6 -3 7 1 4 9 -7 18 -14 21 -14 7z"/>
<path d="M32827 10518 c8 -59 13 -61 13 -5 0 26 -4 47 -9 47 -5 0 -7 -19 -4
-42z"/>
<path d="M32910 10545 c-7 -8 -16 -12 -21 -9 -5 3 -6 -2 -3 -10 7 -18 20 -13
34 15 13 23 7 25 -10 4z"/>
<path d="M32861 10517 c-1 -16 -6 -37 -11 -48 -7 -12 -7 -19 -1 -19 12 0 25
63 18 82 -3 7 -6 0 -6 -15z"/>
<path d="M27420 20280 c0 -5 7 -10 16 -10 8 0 12 5 9 10 -3 6 -10 10 -16 10
-5 0 -9 -4 -9 -10z"/>
<path d="M26370 18650 c0 -5 5 -10 10 -10 6 0 10 5 10 10 0 6 -4 10 -10 10 -5
0 -10 -4 -10 -10z"/>
<path d="M25140 19780 c0 -5 5 -10 11 -10 5 0 7 5 4 10 -3 6 -8 10 -11 10 -2
0 -4 -4 -4 -10z"/>
<path d="M24910 19610 c-18 -12 -2 -12 25 0 13 6 15 9 5 9 -8 0 -22 -4 -30 -9z"/>
<path d="M23952 18760 c0 -14 2 -19 5 -12 2 6 2 18 0 25 -3 6 -5 1 -5 -13z"/>
</g>
</svg>
